# xmcd
#
# Track frame offsets: 
#        150
#        23764
#        40705
#        57895
#        82791
#        97368
#
# Disc length: 1573 seconds
#
# Revision: 0
# Processed by: cddbd v1.5.2PL0 Copyright (c) Steve Scherf et al.
# Submitted via: ExactAudioCopyFreeDBPlugin 1.0
#
DISCID=3f062306
DTITLE=Robert Lubera - Nie - Bo 
DYEAR=1900
DGENRE=Blues
TTITLE0=Bukiet Róż
TTITLE1=To moje miasto
TTITLE2=Budzę się sam
TTITLE3=Zaczynam od nowa
TTITLE4=To moje miasto
TTITLE5=Zaczynam od nowa
EXTD=
EXTT0=
EXTT1=
EXTT2=
EXTT3=
EXTT4=
EXTT5=
PLAYORDER=
